<svg width="137" height="35" viewBox="0 0 137 35" fill="none" xmlns="http://www.w3.org/2000/svg">
<path d="M13.1748 8.32C15.5428 8.32 17.3668 8.912 18.6468 10.096C19.9268 11.248 20.7748 12.816 21.1908 14.8L20.4228 14.56L20.7588 13.792C21.1748 12.96 21.7988 12.128 22.6308 11.296C23.4948 10.432 24.5188 9.728 25.7028 9.184C26.8868 8.608 28.1508 8.32 29.4948 8.32C31.7028 8.32 33.4148 8.8 34.6308 9.76C35.8468 10.688 36.6948 11.952 37.1748 13.552C37.6548 15.12 37.8948 16.88 37.8948 18.832V31.552C37.8948 32.256 37.6708 32.848 37.2228 33.328C36.7748 33.776 36.1988 34 35.4948 34C34.8228 34 34.2468 33.776 33.7668 33.328C33.3188 32.848 33.0948 32.256 33.0948 31.552V18.88C33.0948 17.76 32.9348 16.736 32.6148 15.808C32.3268 14.88 31.7988 14.144 31.0308 13.6C30.2948 13.024 29.2708 12.736 27.9588 12.736C26.7108 12.736 25.5908 13.024 24.5988 13.6C23.6388 14.144 22.8868 14.88 22.3428 15.808C21.7988 16.736 21.5268 17.76 21.5268 18.88V31.552C21.5268 32.256 21.3028 32.848 20.8548 33.328C20.4068 33.776 19.8308 34 19.1268 34C18.4228 34 17.8468 33.776 17.3988 33.328C16.9508 32.848 16.7268 32.256 16.7268 31.552V18.832C16.7268 17.712 16.5668 16.688 16.2468 15.76C15.9588 14.832 15.4468 14.096 14.7108 13.552C13.9748 13.008 12.9508 12.736 11.6388 12.736C10.3908 12.736 9.28682 13.008 8.32682 13.552C7.36682 14.096 6.61482 14.832 6.07082 15.76C5.55882 16.688 5.30282 17.712 5.30282 18.832V31.552C5.30282 32.256 5.06282 32.848 4.58282 33.328C4.13482 33.776 3.57482 34 2.90282 34C2.19882 34 1.62282 33.776 1.17482 33.328C0.726822 32.848 0.502822 32.256 0.502822 31.552V11.2C0.502822 10.496 0.726822 9.92 1.17482 9.472C1.62282 8.992 2.19882 8.752 2.90282 8.752C3.57482 8.752 4.13482 8.992 4.58282 9.472C5.06282 9.92 5.30282 10.496 5.30282 11.2V14.032L4.39082 14.56C4.61482 13.856 4.98282 13.136 5.49482 12.4C6.00682 11.664 6.64682 10.992 7.41482 10.384C8.21482 9.776 9.09482 9.28 10.0548 8.896C11.0148 8.512 12.0548 8.32 13.1748 8.32ZM65.3002 8.368C66.0042 8.368 66.5802 8.608 67.0282 9.088C67.4762 9.536 67.7002 10.112 67.7002 10.816V31.552C67.7002 32.256 67.4762 32.848 67.0282 33.328C66.5802 33.776 66.0042 34 65.3002 34C64.6282 34 64.0522 33.776 63.5722 33.328C63.1242 32.848 62.9002 32.256 62.9002 31.552V28.096L63.9082 28.24C63.9082 28.816 63.6682 29.456 63.1882 30.16C62.7402 30.864 62.1162 31.552 61.3162 32.224C60.5162 32.864 59.5722 33.408 58.4842 33.856C57.3962 34.272 56.2282 34.48 54.9802 34.48C52.7722 34.48 50.7882 33.92 49.0282 32.8C47.2682 31.648 45.8762 30.08 44.8522 28.096C43.8282 26.112 43.3162 23.856 43.3162 21.328C43.3162 18.736 43.8282 16.464 44.8522 14.512C45.8762 12.528 47.2522 10.976 48.9802 9.856C50.7402 8.736 52.6922 8.176 54.8362 8.176C56.2122 8.176 57.4762 8.4 58.6282 8.848C59.8122 9.296 60.8362 9.872 61.7002 10.576C62.5642 11.28 63.2202 12.032 63.6682 12.832C64.1482 13.6 64.3882 14.336 64.3882 15.04L62.9002 15.184V10.816C62.9002 10.144 63.1242 9.568 63.5722 9.088C64.0522 8.608 64.6282 8.368 65.3002 8.368ZM55.5082 30.064C57.0122 30.064 58.3402 29.68 59.4922 28.912C60.6442 28.144 61.5402 27.104 62.1802 25.792C62.8202 24.448 63.1402 22.96 63.1402 21.328C63.1402 19.664 62.8202 18.176 62.1802 16.864C61.5402 15.552 60.6442 14.512 59.4922 13.744C58.3402 12.976 57.0122 12.592 55.5082 12.592C54.0362 12.592 52.7242 12.976 51.5722 13.744C50.4522 14.512 49.5562 15.552 48.8842 16.864C48.2442 18.176 47.9242 19.664 47.9242 21.328C47.9242 22.96 48.2442 24.448 48.8842 25.792C49.5562 27.104 50.4522 28.144 51.5722 28.912C52.7242 29.68 54.0362 30.064 55.5082 30.064ZM87.4327 8.176C89.7047 8.176 91.4647 8.656 92.7127 9.616C93.9607 10.544 94.8247 11.808 95.3047 13.408C95.8167 14.976 96.0727 16.736 96.0727 18.688V31.552C96.0727 32.256 95.8327 32.848 95.3527 33.328C94.9047 33.776 94.3447 34 93.6727 34C92.9687 34 92.3927 33.776 91.9447 33.328C91.4967 32.848 91.2727 32.256 91.2727 31.552V18.736C91.2727 17.584 91.1127 16.56 90.7927 15.664C90.4727 14.736 89.9127 14 89.1127 13.456C88.3447 12.88 87.2567 12.592 85.8487 12.592C84.5367 12.592 83.3847 12.88 82.3927 13.456C81.4007 14 80.6167 14.736 80.0407 15.664C79.4967 16.56 79.2247 17.584 79.2247 18.736V31.552C79.2247 32.256 78.9847 32.848 78.5047 33.328C78.0567 33.776 77.4967 34 76.8247 34C76.1207 34 75.5447 33.776 75.0967 33.328C74.6487 32.848 74.4247 32.256 74.4247 31.552V11.2C74.4247 10.496 74.6487 9.92 75.0967 9.472C75.5447 8.992 76.1207 8.752 76.8247 8.752C77.4967 8.752 78.0567 8.992 78.5047 9.472C78.9847 9.92 79.2247 10.496 79.2247 11.2V13.888L78.3607 14.368C78.5847 13.664 78.9687 12.96 79.5127 12.256C80.0887 11.52 80.7767 10.848 81.5767 10.24C82.3767 9.6 83.2727 9.104 84.2647 8.752C85.2567 8.368 86.3127 8.176 87.4327 8.176ZM107.249 31.552C107.249 32.256 107.025 32.848 106.577 33.328C106.129 33.776 105.553 34 104.849 34C104.177 34 103.601 33.776 103.121 33.328C102.673 32.848 102.449 32.256 102.449 31.552V11.008C102.449 10.304 102.673 9.728 103.121 9.28C103.601 8.8 104.177 8.56 104.849 8.56C105.553 8.56 106.129 8.8 106.577 9.28C107.025 9.728 107.249 10.304 107.249 11.008V31.552ZM104.801 5.392C103.873 5.392 103.201 5.232 102.785 4.912C102.369 4.56 102.161 3.984 102.161 3.184V2.416C102.161 1.616 102.385 1.056 102.833 0.735999C103.281 0.415999 103.953 0.256 104.849 0.256C105.809 0.256 106.497 0.431999 106.913 0.783998C107.329 1.104 107.537 1.648 107.537 2.416V3.184C107.537 4.016 107.313 4.592 106.865 4.912C106.449 5.232 105.761 5.392 104.801 5.392ZM134.394 8.368C135.098 8.368 135.674 8.608 136.122 9.088C136.57 9.536 136.794 10.112 136.794 10.816V31.552C136.794 32.256 136.57 32.848 136.122 33.328C135.674 33.776 135.098 34 134.394 34C133.722 34 133.146 33.776 132.666 33.328C132.218 32.848 131.994 32.256 131.994 31.552V28.096L133.002 28.24C133.002 28.816 132.762 29.456 132.282 30.16C131.834 30.864 131.21 31.552 130.41 32.224C129.61 32.864 128.666 33.408 127.578 33.856C126.49 34.272 125.322 34.48 124.074 34.48C121.866 34.48 119.882 33.92 118.122 32.8C116.362 31.648 114.97 30.08 113.946 28.096C112.922 26.112 112.41 23.856 112.41 21.328C112.41 18.736 112.922 16.464 113.946 14.512C114.97 12.528 116.346 10.976 118.074 9.856C119.834 8.736 121.786 8.176 123.93 8.176C125.306 8.176 126.57 8.4 127.722 8.848C128.906 9.296 129.93 9.872 130.794 10.576C131.658 11.28 132.314 12.032 132.762 12.832C133.242 13.6 133.482 14.336 133.482 15.04L131.994 15.184V10.816C131.994 10.144 132.218 9.568 132.666 9.088C133.146 8.608 133.722 8.368 134.394 8.368ZM124.602 30.064C126.106 30.064 127.434 29.68 128.586 28.912C129.738 28.144 130.634 27.104 131.274 25.792C131.914 24.448 132.234 22.96 132.234 21.328C132.234 19.664 131.914 18.176 131.274 16.864C130.634 15.552 129.738 14.512 128.586 13.744C127.434 12.976 126.106 12.592 124.602 12.592C123.13 12.592 121.818 12.976 120.666 13.744C119.546 14.512 118.65 15.552 117.978 16.864C117.338 18.176 117.018 19.664 117.018 21.328C117.018 22.96 117.338 24.448 117.978 25.792C118.65 27.104 119.546 28.144 120.666 28.912C121.818 29.68 123.13 30.064 124.602 30.064Z" fill="#FF8C42"/>
</svg>
