<svg width="70" height="70" viewBox="0 0 70 70" fill="none" xmlns="http://www.w3.org/2000/svg">
<circle cx="35" cy="35" r="35" fill="white"/>
<path d="M35 30.8571C41.3125 30.8571 46.4286 25.741 46.4286 19.4286C46.4286 13.1161 41.3125 8 35 8C28.6875 8 23.5714 13.1161 23.5714 19.4286C23.5714 25.741 28.6875 30.8571 35 30.8571ZM43 33.7143H41.5089C39.5268 34.625 37.3214 35.1428 35 35.1428C32.6786 35.1428 30.4821 34.625 28.4911 33.7143H27C20.375 33.7143 15 39.0892 15 45.7142V49.4285C15 51.7946 16.9196 53.7142 19.2857 53.7142H50.7143C53.0804 53.7142 55 51.7946 55 49.4285V45.7142C55 39.0892 49.625 33.7143 43 33.7143Z" fill="#FF5B00"/>
</svg>
